<?xml version="1.0" encoding="UTF-8"?>
<svg version="1.1" xmlns="http://www.w3.org/2000/svg" width="121" height="121">
<path d="M0,0 L19,0 L19,1 L23,1 L23,2 L27,2 L27,3 L29,3 L29,4 L31,4 L31,5 L33,5 L33,6 L35,6 L35,7 L37,7 L37,8 L38,8 L38,9 L40,9 L40,10 L41,10 L41,11 L43,11 L43,12 L44,12 L44,13 L45,13 L45,14 L47,14 L47,15 L48,15 L48,16 L49,16 L49,17 L50,17 L50,18 L52,18 L52,19 L53,19 L53,20 L54,20 L54,21 L55,21 L55,22 L56,22 L56,23 L57,23 L57,24 L59,24 L59,25 L60,25 L60,26 L61,26 L61,27 L62,27 L62,28 L63,28 L63,29 L64,29 L64,30 L65,30 L65,31 L66,31 L66,32 L67,32 L67,33 L68,33 L68,34 L69,34 L69,35 L70,35 L70,47 L69,47 L69,48 L68,48 L68,49 L67,49 L67,50 L66,50 L66,51 L65,51 L65,52 L64,52 L64,53 L63,53 L63,54 L62,54 L62,55 L61,55 L61,56 L60,56 L60,57 L59,57 L59,58 L57,58 L57,59 L56,59 L56,60 L55,60 L55,61 L54,61 L54,62 L53,62 L53,63 L52,63 L52,64 L50,64 L50,65 L49,65 L49,66 L48,66 L48,67 L47,67 L47,68 L45,68 L45,69 L44,69 L44,70 L43,70 L43,71 L41,71 L41,72 L40,72 L40,73 L38,73 L38,74 L37,74 L37,75 L35,75 L35,76 L33,76 L33,77 L31,77 L31,78 L29,78 L29,79 L27,79 L27,80 L24,80 L24,81 L20,81 L20,82 L13,82 L13,83 L6,83 L6,82 L-1,82 L-1,81 L-5,81 L-5,80 L-8,80 L-8,79 L-10,79 L-10,78 L-12,78 L-12,77 L-14,77 L-14,76 L-16,76 L-16,75 L-18,75 L-18,74 L-19,74 L-19,73 L-21,73 L-21,72 L-22,72 L-22,71 L-24,71 L-24,70 L-25,70 L-25,69 L-26,69 L-26,68 L-28,68 L-28,67 L-29,67 L-29,66 L-30,66 L-30,65 L-31,65 L-31,64 L-33,64 L-33,63 L-34,63 L-34,62 L-35,62 L-35,61 L-36,61 L-36,60 L-37,60 L-37,59 L-38,59 L-38,58 L-40,58 L-40,57 L-41,57 L-41,56 L-42,56 L-42,55 L-43,55 L-43,54 L-44,54 L-44,53 L-45,53 L-45,52 L-46,52 L-46,51 L-47,51 L-47,50 L-48,50 L-48,49 L-49,49 L-49,48 L-50,48 L-50,47 L-51,47 L-51,35 L-50,35 L-50,34 L-49,34 L-49,33 L-48,33 L-48,32 L-47,32 L-47,31 L-46,31 L-46,30 L-45,30 L-45,29 L-44,29 L-44,28 L-43,28 L-43,27 L-42,27 L-42,26 L-41,26 L-41,25 L-40,25 L-40,24 L-38,24 L-38,23 L-37,23 L-37,22 L-36,22 L-36,21 L-35,21 L-35,20 L-34,20 L-34,19 L-33,19 L-33,18 L-31,18 L-31,17 L-30,17 L-30,16 L-29,16 L-29,15 L-28,15 L-28,14 L-26,14 L-26,13 L-25,13 L-25,12 L-24,12 L-24,11 L-22,11 L-22,10 L-21,10 L-21,9 L-19,9 L-19,8 L-18,8 L-18,7 L-16,7 L-16,6 L-14,6 L-14,5 L-12,5 L-12,4 L-10,4 L-10,3 L-8,3 L-8,2 L-4,2 L-4,1 L0,1 Z M4,11 L4,12 L0,12 L0,13 L-2,13 L-2,14 L-5,14 L-5,15 L-7,15 L-7,16 L-9,16 L-9,17 L-10,17 L-10,18 L-11,18 L-11,19 L-13,19 L-13,20 L-14,20 L-14,21 L-15,21 L-15,22 L-17,22 L-17,23 L-18,23 L-18,24 L-20,24 L-20,25 L-21,25 L-21,26 L-22,26 L-22,27 L-23,27 L-23,28 L-24,28 L-24,29 L-26,29 L-26,30 L-27,30 L-27,31 L-28,31 L-28,32 L-29,32 L-29,33 L-30,33 L-30,34 L-31,34 L-31,35 L-32,35 L-32,36 L-34,36 L-34,37 L-35,37 L-35,38 L-36,38 L-36,39 L-37,39 L-37,40 L-39,40 L-39,42 L-38,42 L-38,43 L-36,43 L-36,44 L-35,44 L-35,45 L-34,45 L-34,46 L-32,46 L-32,47 L-31,47 L-31,48 L-30,48 L-30,49 L-29,49 L-29,50 L-28,50 L-28,51 L-27,51 L-27,52 L-26,52 L-26,53 L-24,53 L-24,54 L-23,54 L-23,55 L-22,55 L-22,56 L-21,56 L-21,57 L-20,57 L-20,58 L-18,58 L-18,59 L-17,59 L-17,60 L-15,60 L-15,61 L-14,61 L-14,62 L-13,62 L-13,63 L-11,63 L-11,64 L-10,64 L-10,65 L-9,65 L-9,66 L-7,66 L-7,67 L-5,67 L-5,68 L-2,68 L-2,69 L0,69 L0,70 L4,70 L4,71 L15,71 L15,70 L19,70 L19,69 L21,69 L21,68 L24,68 L24,67 L26,67 L26,66 L28,66 L28,65 L29,65 L29,64 L30,64 L30,63 L32,63 L32,62 L33,62 L33,61 L34,61 L34,60 L36,60 L36,59 L37,59 L37,58 L39,58 L39,57 L40,57 L40,56 L41,56 L41,55 L42,55 L42,54 L43,54 L43,53 L45,53 L45,52 L46,52 L46,51 L47,51 L47,50 L48,50 L48,49 L49,49 L49,48 L50,48 L50,47 L51,47 L51,46 L53,46 L53,45 L54,45 L54,44 L55,44 L55,43 L57,43 L57,42 L58,42 L58,40 L56,40 L56,39 L55,39 L55,38 L54,38 L54,37 L53,37 L53,36 L51,36 L51,35 L50,35 L50,34 L49,34 L49,33 L48,33 L48,32 L47,32 L47,31 L46,31 L46,30 L45,30 L45,29 L43,29 L43,28 L42,28 L42,27 L41,27 L41,26 L40,26 L40,25 L39,25 L39,24 L37,24 L37,23 L36,23 L36,22 L34,22 L34,21 L33,21 L33,20 L32,20 L32,19 L30,19 L30,18 L29,18 L29,17 L28,17 L28,16 L26,16 L26,15 L24,15 L24,14 L21,14 L21,13 L19,13 L19,12 L15,12 L15,11 Z " fill="#F7B446" transform="translate(51,20)"/>
<path d="M0,0 L16,0 L16,1 L19,1 L19,2 L21,2 L21,3 L23,3 L23,4 L24,4 L24,5 L26,5 L26,6 L27,6 L27,7 L28,7 L28,9 L29,9 L29,11 L30,11 L30,13 L31,13 L31,16 L32,16 L32,28 L31,28 L31,31 L30,31 L30,33 L29,33 L29,35 L28,35 L28,37 L27,37 L27,38 L26,38 L26,39 L24,39 L24,40 L23,40 L23,41 L21,41 L21,42 L19,42 L19,43 L16,43 L16,44 L0,44 L0,43 L-3,43 L-3,42 L-5,42 L-5,41 L-7,41 L-7,40 L-8,40 L-8,39 L-9,39 L-9,38 L-11,38 L-11,36 L-12,36 L-12,34 L-13,34 L-13,33 L-14,33 L-14,31 L-15,31 L-15,28 L-16,28 L-16,16 L-15,16 L-15,13 L-14,13 L-14,11 L-13,11 L-13,10 L-12,10 L-12,8 L-11,8 L-11,6 L-9,6 L-9,5 L-8,5 L-8,4 L-7,4 L-7,3 L-5,3 L-5,2 L-3,2 L-3,1 L0,1 Z M7,11 L7,12 L3,12 L3,13 L1,13 L1,14 L0,14 L0,15 L-1,15 L-1,16 L-2,16 L-2,17 L-3,17 L-3,18 L-4,18 L-4,21 L-5,21 L-5,23 L-4,23 L-4,25 L-3,25 L-3,27 L-2,27 L-2,28 L-1,28 L-1,29 L0,29 L0,30 L1,30 L1,31 L3,31 L3,32 L7,32 L7,33 L9,33 L9,32 L13,32 L13,31 L15,31 L15,30 L16,30 L16,29 L17,29 L17,28 L18,28 L18,27 L19,27 L19,26 L20,26 L20,23 L21,23 L21,21 L20,21 L20,19 L19,19 L19,17 L18,17 L18,16 L17,16 L17,15 L16,15 L16,14 L15,14 L15,13 L13,13 L13,12 L9,12 L9,11 Z " fill="#F6B346" transform="translate(52,39)"/>
</svg>
