<?xml version="1.0" encoding="UTF-8"?>
<svg version="1.1" xmlns="http://www.w3.org/2000/svg" width="121" height="121">
<path d="M0,0 L5,0 L5,3 L7,3 L7,4 L8,4 L8,6 L9,6 L9,11 L10,11 L10,13 L11,13 L11,14 L12,14 L12,17 L13,17 L13,19 L14,19 L14,22 L15,22 L15,23 L16,23 L16,25 L17,25 L17,27 L18,27 L18,28 L19,28 L19,31 L20,31 L20,32 L21,32 L21,33 L22,33 L22,37 L23,37 L23,39 L24,39 L24,41 L25,41 L25,42 L26,42 L26,44 L27,44 L27,46 L28,46 L28,48 L29,48 L29,50 L30,50 L30,52 L31,52 L31,53 L32,53 L32,56 L33,56 L33,58 L34,58 L34,59 L35,59 L35,61 L36,61 L36,63 L37,63 L37,62 L38,62 L38,59 L39,59 L39,56 L42,56 L42,57 L43,57 L43,58 L44,58 L44,59 L45,59 L45,60 L46,60 L46,61 L47,61 L47,63 L48,63 L48,66 L49,66 L49,69 L51,69 L51,71 L52,71 L52,75 L53,75 L53,78 L52,78 L52,81 L51,81 L51,83 L50,83 L50,85 L49,85 L49,88 L48,88 L48,91 L47,91 L47,93 L45,93 L45,97 L44,97 L44,101 L43,101 L43,102 L42,102 L42,103 L41,103 L41,104 L40,104 L40,105 L38,105 L38,106 L37,106 L37,105 L36,105 L36,106 L35,106 L35,105 L33,105 L33,104 L32,104 L32,103 L31,103 L31,102 L30,102 L30,100 L29,100 L29,96 L27,96 L27,95 L26,95 L26,92 L25,92 L25,90 L24,90 L24,88 L23,88 L23,86 L22,86 L22,84 L21,84 L21,83 L20,83 L20,82 L21,82 L21,81 L20,81 L20,79 L19,79 L19,78 L18,78 L18,77 L17,77 L17,74 L16,74 L16,72 L15,72 L15,70 L14,70 L14,69 L13,69 L13,66 L12,66 L12,64 L11,64 L11,63 L10,63 L10,61 L9,61 L9,59 L8,59 L8,56 L7,56 L7,55 L6,55 L6,53 L5,53 L5,52 L4,52 L4,50 L3,50 L3,48 L2,48 L2,45 L0,45 L0,48 L-1,48 L-1,49 L-2,49 L-2,51 L-3,51 L-3,53 L-4,53 L-4,57 L-5,57 L-5,60 L-6,60 L-6,61 L-7,61 L-7,63 L-8,63 L-8,65 L-9,65 L-9,68 L-10,68 L-10,70 L-11,70 L-11,72 L-12,72 L-12,75 L-13,75 L-13,77 L-14,77 L-14,79 L-15,79 L-15,82 L-16,82 L-16,85 L-17,85 L-17,86 L-18,86 L-18,88 L-19,88 L-19,91 L-20,91 L-20,95 L-21,95 L-21,97 L-22,97 L-22,99 L-23,99 L-23,100 L-24,100 L-24,103 L-25,103 L-25,105 L-26,105 L-26,108 L-27,108 L-27,109 L-28,109 L-28,111 L-29,111 L-29,112 L-41,112 L-41,111 L-40,111 L-40,107 L-41,107 L-41,95 L-40,95 L-40,86 L-39,86 L-39,84 L-38,84 L-38,81 L-37,81 L-37,80 L-36,80 L-36,77 L-35,77 L-35,74 L-34,74 L-34,72 L-33,72 L-33,71 L-32,71 L-32,67 L-31,67 L-31,65 L-30,65 L-30,62 L-29,62 L-29,60 L-28,60 L-28,58 L-27,58 L-27,55 L-26,55 L-26,53 L-25,53 L-25,50 L-23,50 L-23,46 L-22,46 L-22,43 L-21,43 L-21,40 L-20,40 L-20,39 L-19,39 L-19,37 L-18,37 L-18,33 L-17,33 L-17,31 L-16,31 L-16,30 L-15,30 L-15,28 L-14,28 L-14,25 L-13,25 L-13,22 L-12,22 L-12,20 L-11,20 L-11,18 L-10,18 L-10,15 L-9,15 L-9,13 L-8,13 L-8,10 L-7,10 L-7,9 L-6,9 L-6,6 L-5,6 L-5,4 L-4,4 L-4,3 L-2,3 L-2,2 L-1,2 L-1,1 L0,1 Z " fill="#F6B445" transform="translate(41,9)"/>
<path d="M0,0 L11,0 L11,8 L12,8 L12,16 L11,16 L11,26 L10,26 L10,27 L9,27 L9,28 L6,28 L6,27 L5,27 L5,26 L4,26 L4,25 L3,25 L3,23 L1,23 L1,20 L0,20 L0,17 L-1,17 L-1,14 L-3,14 L-3,12 L-4,12 L-4,5 L-3,5 L-3,3 L-2,3 L-2,2 L-1,2 L-1,1 L0,1 Z " fill="#F7B545" transform="translate(109,0)"/>
<path d="M0,0 L3,0 L3,1 L4,1 L4,2 L5,2 L5,4 L7,4 L7,6 L8,6 L8,9 L9,9 L9,11 L11,11 L11,14 L12,14 L12,17 L13,17 L13,20 L14,20 L14,21 L13,21 L13,24 L12,24 L12,26 L11,26 L11,28 L10,28 L10,29 L9,29 L9,30 L6,30 L6,29 L5,29 L5,28 L3,28 L3,25 L2,25 L2,23 L1,23 L1,20 L0,20 L0,19 L-1,19 L-1,18 L-2,18 L-2,15 L-3,15 L-3,13 L-4,13 L-4,12 L-5,12 L-5,10 L-4,10 L-4,7 L-3,7 L-3,6 L-2,6 L-2,4 L-1,4 L-1,1 L0,1 Z " fill="#F5B344" transform="translate(90,43)"/>
<path d="M0,0 L3,0 L3,1 L4,1 L4,2 L5,2 L5,3 L6,3 L6,7 L7,7 L7,10 L9,10 L9,11 L10,11 L10,14 L11,14 L11,16 L12,16 L12,20 L13,20 L13,21 L12,21 L12,24 L11,24 L11,27 L10,27 L10,29 L9,29 L9,30 L5,30 L5,29 L4,29 L4,27 L2,27 L2,25 L1,25 L1,23 L0,23 L0,21 L-1,21 L-1,20 L-2,20 L-2,18 L-3,18 L-3,15 L-4,15 L-4,11 L-5,11 L-5,10 L-4,10 L-4,7 L-3,7 L-3,5 L-2,5 L-2,2 L-1,2 L-1,1 L0,1 Z " fill="#F7B545" transform="translate(100,20)"/>
<path d="M0,0 L5,0 L5,1 L2,1 L2,3 L0,3 L0,4 L-1,4 L-1,5 L-3,5 L-3,6 L-5,6 L-5,4 L-4,4 L-4,3 L-2,3 L-2,2 L-1,2 L-1,1 L0,1 Z " fill="#FBAB28" transform="translate(41,9)"/>
</svg>
