<?xml version="1.0" encoding="UTF-8"?>
<!DOCTYPE svg PUBLIC "-//W3C//DTD SVG 1.1//EN" "http://www.w3.org/Graphics/SVG/1.1/DTD/svg11.dtd">
<svg xmlns="http://www.w3.org/2000/svg" version="1.1" width="121px" height="121px" style="shape-rendering:geometricPrecision; text-rendering:geometricPrecision; image-rendering:optimizeQuality; fill-rule:evenodd; clip-rule:evenodd" xmlns:xlink="http://www.w3.org/1999/xlink">
<g><path style="opacity:0.997" fill="#637988" d="M 53.5,-0.5 C 55.5,-0.5 57.5,-0.5 59.5,-0.5C 66.1307,6.63154 72.9641,13.6315 80,20.5C 81.4213,22.4048 82.588,24.4048 83.5,26.5C 82.5,27.8333 81.5,29.1667 80.5,30.5C 72.6715,37.4954 65.3381,44.9954 58.5,53C 55.975,53.8959 53.8083,53.3959 52,51.5C 50.7101,47.2695 50.2101,42.9362 50.5,38.5C 44.0974,37.9704 38.4307,39.6371 33.5,43.5C 29.2933,46.041 26.6266,49.7077 25.5,54.5C 23.309,58.2019 22.4757,62.2019 23,66.5C 24.2573,73.6837 27.5906,79.6837 33,84.5C 33.6667,86.1667 33.6667,87.8333 33,89.5C 30.3235,92.3435 27.4901,95.0102 24.5,97.5C 23.8333,97.5 23.5,97.8333 23.5,98.5C 21.7867,100.85 19.4534,101.85 16.5,101.5C 7.99773,95.0144 2.33106,86.6811 -0.5,76.5C -0.5,68.1667 -0.5,59.8333 -0.5,51.5C 3.01125,40.9618 9.01125,31.9618 17.5,24.5C 18.5,23.8333 19.5,23.1667 20.5,22.5C 21.8333,21.8333 22.8333,20.8333 23.5,19.5C 31.7441,14.8597 40.7441,12.8597 50.5,13.5C 50.3347,9.81826 50.5014,6.15159 51,2.5C 51.6979,1.30943 52.5313,0.309426 53.5,-0.5 Z"/></g>
<g><path style="opacity:0.004" fill="#fefffe" d="M 23.5,19.5 C 22.8333,20.8333 21.8333,21.8333 20.5,22.5C 20.5,21.5 20.5,20.5 20.5,19.5C 21.5,19.5 22.5,19.5 23.5,19.5 Z"/></g>
<g><path style="opacity:0.998" fill="#637888" d="M 120.5,44.5 C 120.5,52.1667 120.5,59.8333 120.5,67.5C 117.932,72.6534 115.432,77.9868 113,83.5C 101.915,98.368 87.0819,106.368 68.5,107.5C 68.9463,112.071 68.2797,116.404 66.5,120.5C 64.1667,120.5 61.8333,120.5 59.5,120.5C 53.9225,113.087 47.4225,106.42 40,100.5C 38.4851,98.3228 36.9851,96.1561 35.5,94C 43.735,84.7616 52.4016,75.7616 61.5,67C 64.8039,65.9581 66.9705,67.1247 68,70.5C 68.4986,74.1516 68.6653,77.8183 68.5,81.5C 87.4284,81.0719 96.5951,71.4053 96,52.5C 94.46,46.4169 91.6266,41.0835 87.5,36.5C 86.2339,33.0253 87.2339,30.3586 90.5,28.5C 92.9865,24.9069 95.9865,21.7403 99.5,19C 101.235,18.3486 102.902,18.5153 104.5,19.5C 111.642,26.8111 116.976,35.1444 120.5,44.5 Z"/></g>
<g><path style="opacity:0.004" fill="#fefffe" d="M 15.5,24.5 C 16.1667,23.1667 16.8333,23.1667 17.5,24.5C 16.8333,24.5 16.1667,24.5 15.5,24.5 Z"/></g>
<g><path style="opacity:0.004" fill="#fefffe" d="M 15.5,24.5 C 14.8333,25.1667 14.8333,25.1667 15.5,24.5 Z"/></g>
<g><path style="opacity:0.004" fill="#fefffe" d="M 14.5,25.5 C 13.8333,26.1667 13.8333,26.1667 14.5,25.5 Z"/></g>
<g><path style="opacity:0.004" fill="#fefffe" d="M 13.5,26.5 C 12.8333,27.1667 12.8333,27.1667 13.5,26.5 Z"/></g>
<g><path style="opacity:0.004" fill="#fefffe" d="M 83.5,26.5 C 84.4646,27.7211 84.298,29.0544 83,30.5C 82.0228,31.7736 81.1894,31.7736 80.5,30.5C 81.5,29.1667 82.5,27.8333 83.5,26.5 Z"/></g>
<g><path style="opacity:0.026" fill="#fefffe" d="M 90.5,28.5 C 87.2339,30.3586 86.2339,33.0253 87.5,36.5C 86.5041,36.5858 85.6708,36.2524 85,35.5C 83.5078,30.4696 85.3411,28.1363 90.5,28.5 Z"/></g>
<g><path style="opacity:0.004" fill="#fefffe" d="M 71.5,40.5 C 72.8333,41.1667 72.8333,41.1667 71.5,40.5 Z"/></g>
<g><path style="opacity:0.004" fill="#fefffe" d="M 71.5,41.5 C 70.8333,42.1667 70.8333,42.1667 71.5,41.5 Z"/></g>
<g><path style="opacity:0.013" fill="#fefffe" d="M 33.5,43.5 C 34.4646,44.7211 34.298,46.0544 33,47.5C 30.3717,49.9235 27.8717,52.2568 25.5,54.5C 26.6266,49.7077 29.2933,46.041 33.5,43.5 Z"/></g>
<g><path style="opacity:0.004" fill="#fefffe" d="M 24.5,97.5 C 25.8333,98.1667 25.8333,98.1667 24.5,97.5 Z"/></g>
<g><path style="opacity:0.008" fill="#fefffe" d="M 23.5,98.5 C 23.8333,98.5 24.1667,98.5 24.5,98.5C 23.5131,101.18 21.6798,102.846 19,103.5C 17.6244,103.316 16.7911,102.649 16.5,101.5C 19.4534,101.85 21.7867,100.85 23.5,98.5 Z"/></g>
</svg>
