<?xml version="1.0" encoding="UTF-8"?>
<!DOCTYPE svg PUBLIC "-//W3C//DTD SVG 1.1//EN" "http://www.w3.org/Graphics/SVG/1.1/DTD/svg11.dtd">
<svg xmlns="http://www.w3.org/2000/svg" version="1.1" width="121px" height="121px" style="shape-rendering:geometricPrecision; text-rendering:geometricPrecision; image-rendering:optimizeQuality; fill-rule:evenodd; clip-rule:evenodd" xmlns:xlink="http://www.w3.org/1999/xlink">
<g><path style="opacity:0.992" fill="#f3b247" d="M 53.5,-0.5 C 55.5,-0.5 57.5,-0.5 59.5,-0.5C 59.9867,0.473444 60.4867,1.47344 61,2.5C 67.2915,8.49096 73.6248,14.491 80,20.5C 81.5588,22.2166 82.3921,24.2166 82.5,26.5C 81.5,27.8333 80.5,29.1667 79.5,30.5C 75.5,35.1667 71.1667,39.5 66.5,43.5C 64.5,44.8333 62.8333,46.5 61.5,48.5C 60.5251,50.1927 59.1918,51.6927 57.5,53C 55.6332,53.7112 54.1332,53.2112 53,51.5C 51.6211,46.964 51.1211,42.2973 51.5,37.5C 46.6624,37.4213 41.9957,38.2546 37.5,40C 35.5692,40.9022 33.9025,42.0688 32.5,43.5C 29.0669,46.6012 26.4002,50.2679 24.5,54.5C 20.8441,66.4101 23.6774,76.4101 33,84.5C 33.6667,86.1667 33.6667,87.8333 33,89.5C 30.3235,92.3435 27.4901,95.0102 24.5,97.5C 24.1667,97.5 23.8333,97.5 23.5,97.5C 22.1707,100.48 19.8374,101.813 16.5,101.5C 8.0313,95.0383 2.36463,86.705 -0.5,76.5C -0.5,68.8333 -0.5,61.1667 -0.5,53.5C 1.14407,48.0936 3.31074,42.7603 6,37.5C 9.74981,32.9275 13.5831,28.5942 17.5,24.5C 18.5,23.8333 19.5,23.1667 20.5,22.5C 22.4607,21.5398 24.1274,20.2065 25.5,18.5C 33.7526,15.1338 42.4193,13.4671 51.5,13.5C 51.7892,9.89364 51.4558,6.39364 50.5,3C 51.365,1.64116 52.365,0.47449 53.5,-0.5 Z"/></g>
<g><path style="opacity:0.004" fill="#e8e8e8" d="M 25.5,18.5 C 24.1274,20.2065 22.4607,21.5398 20.5,22.5C 20.5,21.5 20.5,20.5 20.5,19.5C 22.2161,19.3713 23.8828,19.038 25.5,18.5 Z"/></g>
<g><path style="opacity:0.998" fill="#f1b147" d="M 120.5,48.5 C 120.5,53.8333 120.5,59.1667 120.5,64.5C 117.881,69.8384 115.714,75.505 114,81.5C 103.056,98.4176 87.5562,106.751 67.5,106.5C 67.7166,111.23 67.3833,115.897 66.5,120.5C 64.1667,120.5 61.8333,120.5 59.5,120.5C 59.631,119.761 59.4643,119.094 59,118.5C 50.5276,110.868 42.6943,102.702 35.5,94C 37.0072,91.5655 39.0072,89.5655 41.5,88C 42.4862,85.6716 44.4862,83.6716 47.5,82C 51.6806,77.1021 56.0139,72.4354 60.5,68C 62.4727,67.5045 64.4727,67.3379 66.5,67.5C 67.1489,72.1358 67.6489,76.8024 68,81.5C 72.1557,82.7151 76.3224,82.5484 80.5,81C 94.2507,73.568 99.2507,62.2347 95.5,47C 93.42,42.9842 90.7534,39.4842 87.5,36.5C 87.0156,33.2118 88.0156,30.5452 90.5,28.5C 92.6235,25.2082 95.2902,22.3749 98.5,20C 100.902,19.1859 103.235,19.3526 105.5,20.5C 113.169,28.595 118.169,37.9284 120.5,48.5 Z"/></g>
<g><path style="opacity:0.004" fill="#fefffe" d="M 15.5,24.5 C 16.1667,23.1667 16.8333,23.1667 17.5,24.5C 16.8333,24.5 16.1667,24.5 15.5,24.5 Z"/></g>
<g><path style="opacity:0.004" fill="#fefffe" d="M 15.5,24.5 C 14.8333,25.1667 14.8333,25.1667 15.5,24.5 Z"/></g>
<g><path style="opacity:0.004" fill="#fefffe" d="M 14.5,25.5 C 13.8333,26.1667 13.8333,26.1667 14.5,25.5 Z"/></g>
<g><path style="opacity:0.004" fill="#fefffe" d="M 13.5,26.5 C 12.8333,27.1667 12.8333,27.1667 13.5,26.5 Z"/></g>
<g><path style="opacity:0.005" fill="#c9c9c9" d="M 82.5,26.5 C 83.3764,26.3691 84.0431,26.7025 84.5,27.5C 83.9133,30.806 82.2466,31.806 79.5,30.5C 80.5,29.1667 81.5,27.8333 82.5,26.5 Z"/></g>
<g><path style="opacity:0.024" fill="#f6f6f6" d="M 90.5,28.5 C 88.0156,30.5452 87.0156,33.2118 87.5,36.5C 86.5041,36.5858 85.6708,36.2524 85,35.5C 83.5078,30.4696 85.3411,28.1363 90.5,28.5 Z"/></g>
<g><path style="opacity:0.004" fill="#fefffe" d="M 71.5,40.5 C 72.8333,41.1667 72.8333,41.1667 71.5,40.5 Z"/></g>
<g><path style="opacity:0.004" fill="#fefffe" d="M 71.5,41.5 C 70.8333,42.1667 70.8333,42.1667 71.5,41.5 Z"/></g>
<g><path style="opacity:0.012" fill="#ececec" d="M 32.5,43.5 C 33.3764,43.3691 34.0431,43.7025 34.5,44.5C 32.3197,47.8371 29.9864,51.0038 27.5,54C 26.552,54.4828 25.552,54.6495 24.5,54.5C 26.4002,50.2679 29.0669,46.6012 32.5,43.5 Z"/></g>
<g><path style="opacity:0.055" fill="#31302e" d="M 66.5,43.5 C 65.8333,46.1667 64.1667,47.8333 61.5,48.5C 62.8333,46.5 64.5,44.8333 66.5,43.5 Z"/></g>
<g><path style="opacity:0.004" fill="#fefffe" d="M 24.5,97.5 C 25.8333,98.1667 25.8333,98.1667 24.5,97.5 Z"/></g>
<g><path style="opacity:0.008" fill="#efefef" d="M 23.5,97.5 C 23.5,98.1667 23.8333,98.5 24.5,98.5C 23.5131,101.18 21.6798,102.846 19,103.5C 17.6244,103.316 16.7911,102.649 16.5,101.5C 19.8374,101.813 22.1707,100.48 23.5,97.5 Z"/></g>
</svg>
