<?xml version="1.0" encoding="UTF-8"?>
<svg version="1.1" xmlns="http://www.w3.org/2000/svg" width="121" height="121">
<path d="M0 0 C1.73830078 -0.01160156 1.73830078 -0.01160156 3.51171875 -0.0234375 C10.41209198 -0.00784344 16.80051626 0.57321929 23.5 2.25 C23.5 2.91 23.5 3.57 23.5 4.25 C24.263125 4.394375 25.02625 4.53875 25.8125 4.6875 C28.5 5.25 28.5 5.25 31.5 6.25 C31.5 6.91 31.5 7.57 31.5 8.25 C32.82 8.58 34.14 8.91 35.5 9.25 C35.5 9.91 35.5 10.57 35.5 11.25 C36.5828125 11.311875 36.5828125 11.311875 37.6875 11.375 C40.99477805 12.40393095 42.24056861 13.97526165 44.296875 16.6953125 C45.58667281 18.44441695 45.58667281 18.44441695 47.8125 20.4375 C49.5 22.25 49.5 22.25 49.5 25.25 C50.985 25.745 50.985 25.745 52.5 26.25 C52.5 27.24 52.5 28.23 52.5 29.25 C53.16 29.25 53.82 29.25 54.5 29.25 C55.49 33.705 55.49 33.705 56.5 38.25 C57.16 38.25 57.82 38.25 58.5 38.25 C60.35383735 45.80892678 60.806473 52.98496296 60.75 60.75 C60.76160156 62.34521484 60.76160156 62.34521484 60.7734375 63.97265625 C60.75710219 70.62929621 60.08599801 76.78317441 58.5 83.25 C57.84 83.25 57.18 83.25 56.5 83.25 C55.84 86.22 55.18 89.19 54.5 92.25 C53.84 92.25 53.18 92.25 52.5 92.25 C52.005 94.23 52.005 94.23 51.5 96.25 C50.84 96.25 50.18 96.25 49.5 96.25 C49.4175 96.806875 49.335 97.36375 49.25 97.9375 C47.48879983 103.3678672 42.93597083 106.94661747 38.5 110.25 C37.51 110.25 36.52 110.25 35.5 110.25 C35.005 111.735 35.005 111.735 34.5 113.25 C33.51 113.25 32.52 113.25 31.5 113.25 C31.5 113.91 31.5 114.57 31.5 115.25 C28.59399739 116.50664978 26.70395416 117.25 23.5 117.25 C23.5 117.91 23.5 118.57 23.5 119.25 C15.62513463 121.22096117 8.09369444 121.55401798 0 121.5 C-1.15886719 121.50773437 -2.31773438 121.51546875 -3.51171875 121.5234375 C-10.41209198 121.50784344 -16.80051626 120.92678071 -23.5 119.25 C-23.5 118.59 -23.5 117.93 -23.5 117.25 C-24.263125 117.105625 -25.02625 116.96125 -25.8125 116.8125 C-28.5 116.25 -28.5 116.25 -31.5 115.25 C-31.5 114.59 -31.5 113.93 -31.5 113.25 C-32.82 112.92 -34.14 112.59 -35.5 112.25 C-35.5 111.59 -35.5 110.93 -35.5 110.25 C-36.221875 110.20875 -36.94375 110.1675 -37.6875 110.125 C-40.99477805 109.09606905 -42.24056861 107.52473835 -44.296875 104.8046875 C-45.58667281 103.05558305 -45.58667281 103.05558305 -47.8125 101.0625 C-49.5 99.25 -49.5 99.25 -49.5 96.25 C-50.49 95.92 -51.48 95.59 -52.5 95.25 C-52.5 94.26 -52.5 93.27 -52.5 92.25 C-53.16 92.25 -53.82 92.25 -54.5 92.25 C-55.16 89.28 -55.82 86.31 -56.5 83.25 C-57.16 83.25 -57.82 83.25 -58.5 83.25 C-60.35383735 75.69107322 -60.806473 68.51503704 -60.75 60.75 C-60.75773437 59.68652344 -60.76546875 58.62304688 -60.7734375 57.52734375 C-60.75710219 50.87070379 -60.08599801 44.71682559 -58.5 38.25 C-57.84 38.25 -57.18 38.25 -56.5 38.25 C-55.84 35.28 -55.18 32.31 -54.5 29.25 C-53.84 29.25 -53.18 29.25 -52.5 29.25 C-52.17 27.93 -51.84 26.61 -51.5 25.25 C-50.84 25.25 -50.18 25.25 -49.5 25.25 C-49.4175 24.693125 -49.335 24.13625 -49.25 23.5625 C-47.48879983 18.1321328 -42.93597083 14.55338253 -38.5 11.25 C-37.51 11.25 -36.52 11.25 -35.5 11.25 C-35.17 10.26 -34.84 9.27 -34.5 8.25 C-33.51 8.25 -32.52 8.25 -31.5 8.25 C-31.5 7.59 -31.5 6.93 -31.5 6.25 C-28.59399739 4.99335022 -26.70395416 4.25 -23.5 4.25 C-23.5 3.59 -23.5 2.93 -23.5 2.25 C-15.62513463 0.27903883 -8.09369444 -0.05401798 0 0 Z M-11.5 16.25 C-11.5 16.91 -11.5 17.57 -11.5 18.25 C-13.81 18.58 -16.12 18.91 -18.5 19.25 C-18.5 19.91 -18.5 20.57 -18.5 21.25 C-19.675625 21.4665625 -19.675625 21.4665625 -20.875 21.6875 C-23.46421018 22.12798925 -23.46421018 22.12798925 -25.5 23.25 C-25.5 23.91 -25.5 24.57 -25.5 25.25 C-26.0775 25.311875 -26.655 25.37375 -27.25 25.4375 C-30.38257571 26.5687079 -31.53460851 28.62947801 -33.5 31.25 C-34.16 31.58 -34.82 31.91 -35.5 32.25 C-37.07548683 34.87581138 -37.5 36.12099787 -37.5 39.25 C-38.16 39.25 -38.82 39.25 -39.5 39.25 C-39.83 41.23 -40.16 43.21 -40.5 45.25 C-41.16 45.25 -41.82 45.25 -42.5 45.25 C-44.77529772 55.34780891 -45.44583801 66.17875895 -42.5 76.25 C-41.84 76.25 -41.18 76.25 -40.5 76.25 C-40.17 78.23 -39.84 80.21 -39.5 82.25 C-38.84 82.25 -38.18 82.25 -37.5 82.25 C-37.355625 82.848125 -37.21125 83.44625 -37.0625 84.0625 C-35.83491003 88.836461 -34.35340057 90.24246785 -30.5 93.25 C-29.84 94.24 -29.18 95.23 -28.5 96.25 C-27.51 96.25 -26.52 96.25 -25.5 96.25 C-25.5 96.91 -25.5 97.57 -25.5 98.25 C-22.85261084 99.7106285 -21.60551666 100.25 -18.5 100.25 C-18.5 100.91 -18.5 101.57 -18.5 102.25 C-15.035 102.745 -15.035 102.745 -11.5 103.25 C-11.5 103.91 -11.5 104.57 -11.5 105.25 C-3.66992004 106.04773542 3.69636521 106.39500285 11.5 105.25 C11.5 104.59 11.5 103.93 11.5 103.25 C13.81 102.92 16.12 102.59 18.5 102.25 C18.5 101.59 18.5 100.93 18.5 100.25 C19.675625 100.0334375 19.675625 100.0334375 20.875 99.8125 C23.46421018 99.37201075 23.46421018 99.37201075 25.5 98.25 C25.5 97.59 25.5 96.93 25.5 96.25 C26.0775 96.188125 26.655 96.12625 27.25 96.0625 C30.38257571 94.9312921 31.53460851 92.87052199 33.5 90.25 C34.16 89.92 34.82 89.59 35.5 89.25 C37.07548683 86.62418862 37.5 85.37900213 37.5 82.25 C38.16 82.25 38.82 82.25 39.5 82.25 C39.83 80.27 40.16 78.29 40.5 76.25 C41.16 76.25 41.82 76.25 42.5 76.25 C44.77529772 66.15219109 45.44583801 55.32124105 42.5 45.25 C41.84 45.25 41.18 45.25 40.5 45.25 C40.005 42.28 40.005 42.28 39.5 39.25 C38.84 39.25 38.18 39.25 37.5 39.25 C37.2834375 38.3528125 37.2834375 38.3528125 37.0625 37.4375 C35.83491003 32.663539 34.35340057 31.25753215 30.5 28.25 C29.51 26.765 29.51 26.765 28.5 25.25 C27.51 25.25 26.52 25.25 25.5 25.25 C25.5 24.59 25.5 23.93 25.5 23.25 C22.85261084 21.7893715 21.60551666 21.25 18.5 21.25 C18.5 20.59 18.5 19.93 18.5 19.25 C16.19 18.92 13.88 18.59 11.5 18.25 C11.5 17.59 11.5 16.93 11.5 16.25 C3.66992004 15.45226458 -3.69636521 15.10499715 -11.5 16.25 Z " fill="#F6B447" transform="translate(60.5,-0.25)"/>
<path d="M0 0 C0 0.66 0 1.32 0 2 C1.65 2 3.3 2 5 2 C5.495 3.485 5.495 3.485 6 5 C6.598125 5.144375 7.19625 5.28875 7.8125 5.4375 C10.77479483 6.19923296 12.04920816 7.70085247 14 10 C14 10.66 14 11.32 14 12 C14.99 12.33 15.98 12.66 17 13 C17 13.66 17 14.32 17 15 C17.66 15 18.32 15 19 15 C20.60355101 18.50776784 21.22036864 21.14354879 21 25 C21.66 25 22.32 25 23 25 C23 31.27 23 37.54 23 44 C22.34 44 21.68 44 21 44 C20.67 46.97 20.34 49.94 20 53 C18.515 53.495 18.515 53.495 17 54 C16.95875 54.721875 16.9175 55.44375 16.875 56.1875 C15.64472305 60.14196163 13.24475899 61.53398317 10 64 C9.484375 64.53625 8.96875 65.0725 8.4375 65.625 C1.17643608 72.57036548 -8.62363191 72.46797476 -18.0546875 72.26953125 C-23.03208762 71.92949104 -27.38704517 70.86292407 -32 69 C-32 68.34 -32 67.68 -32 67 C-33.32 66.67 -34.64 66.34 -36 66 C-36 65.34 -36 64.68 -36 64 C-36.598125 63.731875 -37.19625 63.46375 -37.8125 63.1875 C-39.99847854 62.00082594 -41.41332594 60.90400887 -43 59 C-43 58.34 -43 57.68 -43 57 C-43.99 56.67 -44.98 56.34 -46 56 C-50.33576717 50.12713812 -50.39428417 42.93265973 -50.4375 35.9375 C-50.44740967 35.09920654 -50.45731934 34.26091309 -50.4675293 33.3972168 C-50.35814417 25.35544275 -48.46691426 16.90027854 -43 10.75 C-41 9 -41 9 -39 9 C-38.67 8.01 -38.34 7.02 -38 6 C-29.82834464 -3.59806858 -11.25386124 -3.19175311 0 0 Z M-23 17 C-23 17.66 -23 18.32 -23 19 C-24.32 19.33 -25.64 19.66 -27 20 C-27 20.66 -27 21.32 -27 22 C-27.99 22.33 -28.98 22.66 -30 23 C-30.73323796 25.01508358 -30.73323796 25.01508358 -31 27 C-31.66 27 -32.32 27 -33 27 C-33.75612577 32.23471686 -34.2063366 36.77254141 -33 42 C-32.34 42 -31.68 42 -31 42 C-30.9175 42.721875 -30.835 43.44375 -30.75 44.1875 C-29.66140299 48.26973878 -27.57968293 50.89422195 -24.125 53.3125 C-21.35788795 54.20774213 -18.88772424 54.13126019 -16 54 C-16 54.66 -16 55.32 -16 56 C-15.01 56 -14.02 56 -13 56 C-13 55.34 -13 54.68 -13 54 C-12.113125 54.04125 -11.22625 54.0825 -10.3125 54.125 C-7.02722987 54.00102754 -4.94550705 53.38612096 -2 52 C-2 51.34 -2 50.68 -2 50 C-1.01 49.67 -0.02 49.34 1 49 C3.15637846 47.3353373 3.90500435 46.41986625 4.51171875 43.73828125 C4.59873047 42.53751953 4.59873047 42.53751953 4.6875 41.3125 C4.75324219 40.50425781 4.81898437 39.69601563 4.88671875 38.86328125 C4.92410156 38.24839844 4.96148437 37.63351563 5 37 C5.66 37 6.32 37 7 37 C7 36.01 7 35.02 7 34 C6.34 34 5.68 34 5 34 C4.505 30.04 4.505 30.04 4 26 C3.34 26 2.68 26 2 26 C1.9175 25.443125 1.835 24.88625 1.75 24.3125 C0.64297322 20.89916742 -0.2600768 19.42132748 -3 17 C-10.05064455 14.78823669 -16.04801257 14.59354281 -23 17 Z " fill="#F7B447" transform="translate(75,26)"/>
<path d="M0 0 C0.99386719 0.02707031 1.98773438 0.05414063 3.01171875 0.08203125 C4.15060547 0.13423828 4.15060547 0.13423828 5.3125 0.1875 C5.6425 1.1775 5.9725 2.1675 6.3125 3.1875 C6.9725 3.1875 7.6325 3.1875 8.3125 3.1875 C8.3125 6.8175 8.3125 10.4475 8.3125 14.1875 C7.6525 14.1875 6.9925 14.1875 6.3125 14.1875 C5.9825 15.1775 5.6525 16.1675 5.3125 17.1875 C3.54242286 17.26864106 1.77127902 17.32675505 0 17.375 C-0.98613281 17.40980469 -1.97226562 17.44460937 -2.98828125 17.48046875 C-5.6875 17.1875 -5.6875 17.1875 -7.51953125 16.01953125 C-9.12573144 13.50010687 -9.08645258 11.65761985 -9.0625 8.6875 C-9.07023437 7.7284375 -9.07796875 6.769375 -9.0859375 5.78125 C-8.6875 3.1875 -8.6875 3.1875 -7.51953125 1.35546875 C-4.94348741 -0.28682785 -3.02540805 -0.10677911 0 0 Z " fill="#F6B645" transform="translate(61.6875,51.8125)"/>
</svg>
