<?xml version="1.0" encoding="UTF-8"?>
<svg version="1.1" xmlns="http://www.w3.org/2000/svg" width="121" height="121">
<path d="M0,0 L64,0 L64,4 L63,4 L63,5 L62,5 L62,8 L61,8 L61,9 L60,9 L60,10 L59,10 L59,11 L58,11 L58,14 L57,14 L57,16 L56,16 L56,18 L55,18 L55,20 L54,20 L54,22 L52,22 L52,25 L51,25 L51,27 L50,27 L50,29 L49,29 L49,31 L48,31 L48,33 L47,33 L47,34 L46,34 L46,36 L88,36 L88,41 L87,41 L87,42 L86,42 L86,43 L84,43 L84,44 L83,44 L83,46 L81,46 L81,47 L80,47 L80,48 L79,48 L79,49 L78,49 L78,50 L76,50 L76,52 L75,52 L75,53 L73,53 L73,54 L72,54 L72,55 L71,55 L71,56 L70,56 L70,57 L69,57 L69,58 L68,58 L68,59 L66,59 L66,60 L65,60 L65,61 L64,61 L64,62 L63,62 L63,63 L61,63 L61,64 L60,64 L60,65 L59,65 L59,66 L58,66 L58,67 L57,67 L57,69 L55,69 L55,70 L54,70 L54,71 L53,71 L53,72 L52,72 L52,73 L51,73 L51,74 L50,74 L50,75 L48,75 L48,76 L47,76 L47,77 L46,77 L46,78 L45,78 L45,79 L44,79 L44,80 L43,80 L43,81 L41,81 L41,82 L40,82 L40,83 L39,83 L39,84 L38,84 L38,85 L37,85 L37,86 L36,86 L36,87 L34,87 L34,88 L33,88 L33,89 L32,89 L32,90 L31,90 L31,91 L30,91 L30,92 L29,92 L29,93 L27,93 L27,94 L26,94 L26,95 L25,95 L25,96 L24,96 L24,97 L23,97 L23,98 L22,98 L22,99 L21,99 L21,100 L19,100 L19,101 L18,101 L18,102 L17,102 L17,103 L16,103 L16,104 L15,104 L15,105 L14,105 L14,106 L13,106 L13,107 L11,107 L11,109 L10,109 L10,110 L9,110 L9,111 L7,111 L7,112 L6,112 L6,113 L5,113 L5,114 L4,114 L4,115 L3,115 L3,116 L2,116 L2,117 L0,117 L0,118 L-1,118 L-1,119 L-2,119 L-2,120 L-3,120 L-3,121 L-9,121 L-9,116 L-8,116 L-8,112 L-7,112 L-7,111 L-6,111 L-6,109 L-5,109 L-5,108 L-4,108 L-4,105 L-3,105 L-3,101 L-2,101 L-2,99 L-1,99 L-1,96 L0,96 L0,93 L1,93 L1,91 L3,91 L3,86 L4,86 L4,84 L5,84 L5,81 L6,81 L6,79 L7,79 L7,76 L8,76 L8,74 L9,74 L9,71 L10,71 L10,69 L11,69 L11,66 L12,66 L12,64 L13,64 L13,63 L-33,63 L-33,58 L-32,58 L-32,54 L-31,54 L-31,53 L-30,53 L-30,52 L-29,52 L-29,49 L-28,49 L-28,47 L-27,47 L-27,46 L-26,46 L-26,45 L-25,45 L-25,42 L-24,42 L-24,41 L-23,41 L-23,40 L-22,40 L-22,37 L-21,37 L-21,35 L-20,35 L-20,33 L-18,33 L-18,30 L-17,30 L-17,29 L-16,29 L-16,28 L-15,28 L-15,25 L-14,25 L-14,23 L-13,23 L-13,21 L-11,21 L-11,20 L-10,20 L-10,17 L-9,17 L-9,14 L-8,14 L-8,13 L-7,13 L-7,11 L-6,11 L-6,10 L-5,10 L-5,9 L-4,9 L-4,8 L-3,8 L-3,4 L-2,4 L-2,3 L-1,3 L-1,1 L0,1 Z M9,11 L9,14 L8,14 L8,16 L7,16 L7,17 L6,17 L6,18 L5,18 L5,21 L4,21 L4,23 L2,23 L2,25 L1,25 L1,27 L0,27 L0,28 L-1,28 L-1,31 L-2,31 L-2,33 L-3,33 L-3,34 L-4,34 L-4,35 L-5,35 L-5,37 L-6,37 L-6,39 L-7,39 L-7,42 L-8,42 L-8,43 L-9,43 L-9,45 L-10,45 L-10,46 L-11,46 L-11,47 L-12,47 L-12,49 L-13,49 L-13,51 L-14,51 L-14,52 L32,52 L32,55 L31,55 L31,56 L30,56 L30,59 L29,59 L29,61 L28,61 L28,64 L27,64 L27,67 L26,67 L26,69 L25,69 L25,72 L23,72 L23,75 L22,75 L22,79 L21,79 L21,81 L22,81 L22,80 L23,80 L23,79 L24,79 L24,78 L25,78 L25,77 L27,77 L27,75 L28,75 L28,74 L30,74 L30,73 L32,73 L32,72 L33,72 L33,70 L34,70 L34,69 L35,69 L35,68 L36,68 L36,67 L37,67 L37,66 L39,66 L39,65 L40,65 L40,64 L41,64 L41,63 L42,63 L42,62 L43,62 L43,61 L44,61 L44,60 L45,60 L45,59 L47,59 L47,58 L49,58 L49,56 L50,56 L50,55 L51,55 L51,54 L52,54 L52,53 L53,53 L53,52 L56,52 L56,50 L57,50 L57,48 L24,48 L24,45 L25,45 L25,44 L26,44 L26,42 L27,42 L27,40 L28,40 L28,37 L29,37 L29,35 L30,35 L30,34 L32,34 L32,33 L33,33 L33,29 L34,29 L34,27 L35,27 L35,26 L36,26 L36,23 L37,23 L37,22 L39,22 L39,18 L40,18 L40,16 L41,16 L41,15 L42,15 L42,12 L43,12 L43,11 Z " fill="#F6B446" transform="translate(33,0)"/>
<path d="M0,0 L1,0 L1,1 L0,1 Z " fill="#FFFF00" transform="translate(114,61)"/>
</svg>
