<?xml version="1.0" encoding="UTF-8"?>
<svg version="1.1" xmlns="http://www.w3.org/2000/svg" width="121" height="121">
<path d="M0 0 C0 0.66 0 1.32 0 2 C0.886875 2.04125 1.77375 2.0825 2.6875 2.125 C7.06353163 3.28093288 8.27517041 5.48640395 11 9 C13.14980497 10.37254588 13.14980497 10.37254588 15 11 C15 11.99 15 12.98 15 14 C15.66 14 16.32 14 17 14 C20.39019075 17.55556591 22.55491959 19.95575532 23 25 C23.66 25 24.32 25 25 25 C25.495 27.97 25.495 27.97 26 31 C26.66 31 27.32 31 28 31 C31.76921039 46.4133782 33.11026214 62.66921358 28 78 C27.34 78 26.68 78 26 78 C25.67 79.98 25.34 81.96 25 84 C24.34 84 23.68 84 23 84 C22.62875 85.60875 22.62875 85.60875 22.25 87.25 C20.99844572 91.00466284 20.07163802 92.6002828 17 95 C16.34 95 15.68 95 15 95 C14.896875 95.639375 14.79375 96.27875 14.6875 96.9375 C14.460625 97.618125 14.23375 98.29875 14 99 C12.515 99.495 12.515 99.495 11 100 C10.236875 100.99 9.47375 101.98 8.6875 103 C6.61406118 105.6423702 6.15015139 105.96033737 2.6875 106.875 C1.800625 106.91625 0.91375 106.9575 0 107 C0 107.66 0 108.32 0 109 C-13.97965501 117.06518558 -32.91158939 116.72971261 -48.46484375 113.7109375 C-52.31817192 112.63034316 -55.53809599 110.99725231 -59 109 C-59 108.34 -59 107.68 -59 107 C-59.886875 106.95875 -60.77375 106.9175 -61.6875 106.875 C-66.06353163 105.71906712 -67.27517041 103.51359605 -70 100 C-72.14980497 98.62745412 -72.14980497 98.62745412 -74 98 C-74 97.01 -74 96.02 -74 95 C-74.66 95 -75.32 95 -76 95 C-79.39019075 91.44443409 -81.55491959 89.04424468 -82 84 C-82.66 84 -83.32 84 -84 84 C-84.495 81.03 -84.495 81.03 -85 78 C-85.66 78 -86.32 78 -87 78 C-90.76921039 62.5866218 -92.11026214 46.33078642 -87 31 C-86.34 31 -85.68 31 -85 31 C-84.505 28.03 -84.505 28.03 -84 25 C-83.34 25 -82.68 25 -82 25 C-81.7525 23.9275 -81.505 22.855 -81.25 21.75 C-79.99844572 17.99533716 -79.07163802 16.3997172 -76 14 C-75.34 14 -74.68 14 -74 14 C-73.896875 13.360625 -73.79375 12.72125 -73.6875 12.0625 C-73.460625 11.381875 -73.23375 10.70125 -73 10 C-72.01 9.67 -71.02 9.34 -70 9 C-69.236875 8.01 -68.47375 7.02 -67.6875 6 C-65.61406118 3.3576298 -65.15015139 3.03966263 -61.6875 2.125 C-60.3571875 2.063125 -60.3571875 2.063125 -59 2 C-59 1.34 -59 0.68 -59 0 C-42.83963199 -9.32328924 -16.16036801 -9.32328924 0 0 Z M-38 11 C-38 11.66 -38 12.32 -38 13 C-40.64 13.33 -43.28 13.66 -46 14 C-46 14.66 -46 15.32 -46 16 C-46.763125 16.144375 -47.52625 16.28875 -48.3125 16.4375 C-52.88317229 17.39415234 -54.79339702 18.69319068 -58 22 C-58.99 22.66 -59.98 23.32 -61 24 C-61.33 24.99 -61.66 25.98 -62 27 C-62.99 27.66 -63.98 28.32 -65 29 C-65.73343428 32.06556598 -65.73343428 32.06556598 -66 35 C-66.66 35 -67.32 35 -68 35 C-68.33 37.31 -68.66 39.62 -69 42 C-69.66 42 -70.32 42 -71 42 C-71.89550909 46.5912609 -72.13436842 50.95015814 -72.125 55.625 C-72.12757812 56.91664062 -72.13015625 58.20828125 -72.1328125 59.5390625 C-72.0283103 62.26226685 -71.82214646 64.42916106 -71 67 C-70.34 67 -69.68 67 -69 67 C-68.67 69.31 -68.34 71.62 -68 74 C-67.34 74 -66.68 74 -66 74 C-65.896875 74.94875 -65.79375 75.8975 -65.6875 76.875 C-65.31460705 80.29107501 -65.31460705 80.29107501 -62 82 C-61.566875 82.9590625 -61.566875 82.9590625 -61.125 83.9375 C-59.62986935 86.67857286 -57.67807695 87.48928992 -55 89 C-54.505 89.99 -54.505 89.99 -54 91 C-51.09740189 92.3749149 -49.23861295 93 -46 93 C-46 93.66 -46 94.32 -46 95 C-42.7 95.33 -39.4 95.66 -36 96 C-36 96.66 -36 97.32 -36 98 C-31.05 98 -26.1 98 -21 98 C-21 97.34 -21 96.68 -21 96 C-18.36 95.67 -15.72 95.34 -13 95 C-13 94.34 -13 93.68 -13 93 C-12.236875 92.855625 -11.47375 92.71125 -10.6875 92.5625 C-6.11682771 91.60584766 -4.20660298 90.30680932 -1 87 C-0.01 86.34 0.98 85.68 2 85 C2.495 83.515 2.495 83.515 3 82 C3.99 81.34 4.98 80.68 6 80 C6.73343428 76.93443402 6.73343428 76.93443402 7 74 C7.66 74 8.32 74 9 74 C9.33 71.69 9.66 69.38 10 67 C10.66 67 11.32 67 12 67 C12.89550909 62.4087391 13.13436842 58.04984186 13.125 53.375 C13.12757812 52.08335938 13.13015625 50.79171875 13.1328125 49.4609375 C13.0283103 46.73773315 12.82214646 44.57083894 12 42 C11.34 42 10.68 42 10 42 C9.505 38.535 9.505 38.535 9 35 C8.34 35 7.68 35 7 35 C6.896875 34.05125 6.79375 33.1025 6.6875 32.125 C6.31460705 28.70892499 6.31460705 28.70892499 3 27 C2.71125 26.360625 2.4225 25.72125 2.125 25.0625 C0.62986935 22.32142714 -1.32192305 21.51071008 -4 20 C-4.495 19.01 -4.495 19.01 -5 18 C-7.90259811 16.6250851 -9.76138705 16 -13 16 C-13 15.34 -13 14.68 -13 14 C-16.3 13.67 -19.6 13.34 -23 13 C-23 12.34 -23 11.68 -23 11 C-27.95 11 -32.9 11 -38 11 Z " fill="#627888" transform="translate(90,6)"/>
<path d="M0 0 C8.61738853 -0.30654742 15.93475404 -0.39589303 24 3 C24 3.66 24 4.32 24 5 C24.639375 5.103125 25.27875 5.20625 25.9375 5.3125 C26.618125 5.539375 27.29875 5.76625 28 6 C28.495 7.485 28.495 7.485 29 9 C30.32796291 9.35412344 31.66216607 9.68521554 33 10 C34.75 11.375 34.75 11.375 36 13 C36 13.99 36 14.98 36 16 C37.32 16.66 38.64 17.32 40 18 C40 18.99 40 19.98 40 21 C40.66 21 41.32 21 42 21 C44.72666422 31.56582384 45.35226918 42.52415882 42 53 C41.34 53 40.68 53 40 53 C39.855625 53.61875 39.71125 54.2375 39.5625 54.875 C39 57 39 57 38 59 C37.34 59 36.68 59 36 59 C35.896875 59.598125 35.79375 60.19625 35.6875 60.8125 C34.88495875 63.36604035 34.06111416 64.32057364 32 66 C30.66666667 66.66666667 29.33333333 67.33333333 28 68 C27.67 68.66 27.34 69.32 27 70 C24.67843403 70.40729228 22.3431213 70.74438677 20 71 C20 71.66 20 72.32 20 73 C15.44928468 73.88486131 11.13320326 74.13441708 6.5 74.125 C5.2315625 74.12757812 3.963125 74.13015625 2.65625 74.1328125 C-0.66105518 74.0123121 -3.74630764 73.6326624 -7 73 C-7 72.34 -7 71.68 -7 71 C-8.65 70.67 -10.3 70.34 -12 70 C-12 69.34 -12 68.68 -12 68 C-13.3303125 67.7215625 -13.3303125 67.7215625 -14.6875 67.4375 C-18.93312324 65.59505973 -20.84860653 63.03624262 -23 59 C-23 58.34 -23 57.68 -23 57 C-23.99 56.67 -24.98 56.34 -26 56 C-26.33 53.69 -26.66 51.38 -27 49 C-27.66 49 -28.32 49 -29 49 C-29.80053618 44.78130139 -30.1352198 40.79231426 -30.125 36.5 C-30.12757812 35.4171875 -30.13015625 34.334375 -30.1328125 33.21875 C-30.00272728 30.06609647 -29.5876874 27.09701934 -29 24 C-28.34 24 -27.68 24 -27 24 C-26.896875 23.05125 -26.79375 22.1025 -26.6875 21.125 C-26 18 -26 18 -23 16 C-22.67 15.01 -22.34 14.02 -22 13 C-21.34 13 -20.68 13 -20 13 C-19.34 11.68 -18.68 10.36 -18 9 C-17.01 9 -16.02 9 -15 9 C-14.67 8.01 -14.34 7.02 -14 6 C-9.74099344 2.53955717 -5.27700341 2.33340544 0 2 C0 1.34 0 0.68 0 0 Z M2 18 C2 18.66 2 19.32 2 20 C0.35 20.33 -1.3 20.66 -3 21 C-3 21.66 -3 22.32 -3 23 C-4.32 23.33 -5.64 23.66 -7 24 C-7 24.99 -7 25.98 -7 27 C-7.99 27.33 -8.98 27.66 -10 28 C-12.38862679 34.21319108 -11.51846026 42.01865687 -9 48 C-8.34 48 -7.68 48 -7 48 C-6.896875 48.639375 -6.79375 49.27875 -6.6875 49.9375 C-6.3471875 50.9584375 -6.3471875 50.9584375 -6 52 C-5.01 52.33 -4.02 52.66 -3 53 C-2.67 53.66 -2.34 54.32 -2 55 C1.01499383 56.06570252 3.8858433 56.13458267 7.0625 56.125 C8.34833984 56.12886719 8.34833984 56.12886719 9.66015625 56.1328125 C12.15564201 56.09365135 12.15564201 56.09365135 15 55 C15 54.34 15 53.68 15 53 C17.475 52.505 17.475 52.505 20 52 C20 51.34 20 50.68 20 50 C20.66 50 21.32 50 22 50 C23.76462683 46.91190305 24 45.76687864 24 42 C24.66 42 25.32 42 26 42 C26 38.7 26 35.4 26 32 C25.34 32 24.68 32 24 32 C23.34 29.36 22.68 26.72 22 24 C19.525 23.505 19.525 23.505 17 23 C16.67 22.01 16.34 21.02 16 20 C14.68 20 13.36 20 12 20 C12 19.34 12 18.68 12 18 C8.7 18 5.4 18 2 18 Z " fill="#627888" transform="translate(54,24)"/>
<path d="M0 0 C3.88969579 1.00329455 5.3836475 2.34106194 7.96875 5.5078125 C8.82522507 8.70802004 8.82522507 11.30760496 7.96875 14.5078125 C5.3836475 17.67456306 3.88969579 19.01233045 0 20.015625 C-3.09799157 20.2896781 -5.18987134 20.01406576 -7.875 18.3984375 C-10.88946394 15.75367197 -11.92960222 13.98216879 -12.78125 10.0078125 C-11.92960222 6.03345621 -10.88946394 4.26195303 -7.875 1.6171875 C-5.18987134 0.00155924 -3.09799157 -0.2740531 0 0 Z " fill="#637B8A" transform="translate(63.03125,50.4921875)"/>
</svg>
