<?xml version="1.0" encoding="UTF-8"?>
<svg version="1.1" xmlns="http://www.w3.org/2000/svg" width="121" height="121">
<path d="M0,0 L15,0 L15,1 L19,1 L19,2 L22,2 L22,3 L25,3 L25,4 L27,4 L27,5 L30,5 L30,6 L31,6 L31,7 L33,7 L33,8 L35,8 L35,9 L36,9 L36,10 L38,10 L38,11 L39,11 L39,12 L41,12 L41,13 L42,13 L42,14 L43,14 L43,15 L45,15 L45,16 L46,16 L46,17 L47,17 L47,18 L49,18 L49,19 L50,19 L50,20 L51,20 L51,21 L52,21 L52,22 L53,22 L53,23 L54,23 L54,24 L56,24 L56,25 L57,25 L57,26 L58,26 L58,27 L59,27 L59,28 L60,28 L60,29 L61,29 L61,30 L62,30 L62,31 L63,31 L63,32 L64,32 L64,33 L65,33 L65,34 L66,34 L66,35 L67,35 L67,36 L68,36 L68,48 L67,48 L67,49 L66,49 L66,50 L65,50 L65,51 L64,51 L64,52 L63,52 L63,53 L62,53 L62,54 L61,54 L61,55 L60,55 L60,56 L59,56 L59,57 L58,57 L58,58 L57,58 L57,59 L56,59 L56,60 L54,60 L54,61 L53,61 L53,62 L52,62 L52,63 L51,63 L51,64 L50,64 L50,65 L49,65 L49,66 L47,66 L47,67 L46,67 L46,68 L45,68 L45,69 L43,69 L43,70 L42,70 L42,71 L41,71 L41,72 L39,72 L39,73 L38,73 L38,74 L36,74 L36,75 L35,75 L35,76 L33,76 L33,77 L31,77 L31,78 L30,78 L30,79 L27,79 L27,80 L25,80 L25,81 L22,81 L22,82 L19,82 L19,83 L16,83 L16,84 L-1,84 L-1,83 L-4,83 L-4,82 L-7,82 L-7,81 L-10,81 L-10,80 L-12,80 L-12,79 L-15,79 L-15,78 L-16,78 L-16,77 L-18,77 L-18,76 L-20,76 L-20,75 L-21,75 L-21,74 L-23,74 L-23,73 L-24,73 L-24,72 L-26,72 L-26,71 L-27,71 L-27,70 L-28,70 L-28,69 L-30,69 L-30,68 L-31,68 L-31,67 L-32,67 L-32,66 L-34,66 L-34,65 L-35,65 L-35,64 L-36,64 L-36,63 L-37,63 L-37,62 L-38,62 L-38,61 L-39,61 L-39,60 L-41,60 L-41,59 L-42,59 L-42,58 L-43,58 L-43,57 L-44,57 L-44,56 L-45,56 L-45,55 L-46,55 L-46,54 L-47,54 L-47,53 L-48,53 L-48,52 L-49,52 L-49,51 L-50,51 L-50,50 L-51,50 L-51,49 L-52,49 L-52,48 L-53,48 L-53,36 L-52,36 L-52,35 L-51,35 L-51,34 L-50,34 L-50,33 L-49,33 L-49,32 L-48,32 L-48,31 L-47,31 L-47,30 L-46,30 L-46,29 L-45,29 L-45,28 L-44,28 L-44,27 L-43,27 L-43,26 L-42,26 L-42,25 L-41,25 L-41,24 L-39,24 L-39,23 L-38,23 L-38,22 L-37,22 L-37,21 L-36,21 L-36,20 L-35,20 L-35,19 L-34,19 L-34,18 L-32,18 L-32,17 L-31,17 L-31,16 L-30,16 L-30,15 L-28,15 L-28,14 L-27,14 L-27,13 L-26,13 L-26,12 L-24,12 L-24,11 L-23,11 L-23,10 L-21,10 L-21,9 L-20,9 L-20,8 L-18,8 L-18,7 L-16,7 L-16,6 L-15,6 L-15,5 L-12,5 L-12,4 L-10,4 L-10,3 L-7,3 L-7,2 L-4,2 L-4,1 L0,1 Z M4,12 L4,13 L-1,13 L-1,14 L-4,14 L-4,15 L-6,15 L-6,16 L-8,16 L-8,17 L-11,17 L-11,18 L-12,18 L-12,19 L-13,19 L-13,20 L-14,20 L-14,21 L-16,21 L-16,22 L-17,22 L-17,23 L-19,23 L-19,24 L-20,24 L-20,25 L-22,25 L-22,26 L-23,26 L-23,27 L-24,27 L-24,28 L-25,28 L-25,29 L-26,29 L-26,30 L-28,30 L-28,31 L-29,31 L-29,32 L-30,32 L-30,33 L-31,33 L-31,34 L-32,34 L-32,35 L-33,35 L-33,36 L-34,36 L-34,37 L-36,37 L-36,38 L-37,38 L-37,39 L-38,39 L-38,40 L-39,40 L-39,41 L-40,41 L-40,42 L-41,42 L-41,43 L-39,43 L-39,44 L-38,44 L-38,45 L-37,45 L-37,46 L-36,46 L-36,47 L-34,47 L-34,48 L-33,48 L-33,49 L-32,49 L-32,50 L-31,50 L-31,51 L-30,51 L-30,52 L-29,52 L-29,53 L-28,53 L-28,54 L-26,54 L-26,55 L-25,55 L-25,56 L-24,56 L-24,57 L-23,57 L-23,58 L-22,58 L-22,59 L-20,59 L-20,60 L-19,60 L-19,61 L-17,61 L-17,62 L-16,62 L-16,63 L-14,63 L-14,64 L-13,64 L-13,65 L-12,65 L-12,66 L-11,66 L-11,67 L-8,67 L-8,68 L-6,68 L-6,69 L-4,69 L-4,70 L-1,70 L-1,71 L4,71 L4,72 L11,72 L11,71 L16,71 L16,70 L19,70 L19,69 L21,69 L21,68 L23,68 L23,67 L26,67 L26,66 L27,66 L27,65 L28,65 L28,64 L29,64 L29,63 L31,63 L31,62 L32,62 L32,61 L34,61 L34,60 L35,60 L35,59 L37,59 L37,58 L38,58 L38,57 L39,57 L39,56 L40,56 L40,55 L41,55 L41,54 L43,54 L43,53 L44,53 L44,52 L45,52 L45,51 L46,51 L46,50 L47,50 L47,49 L48,49 L48,48 L49,48 L49,47 L51,47 L51,46 L52,46 L52,45 L53,45 L53,44 L54,44 L54,43 L56,43 L56,42 L55,42 L55,41 L54,41 L54,40 L53,40 L53,39 L52,39 L52,38 L51,38 L51,37 L49,37 L49,36 L48,36 L48,35 L47,35 L47,34 L46,34 L46,33 L45,33 L45,32 L44,32 L44,31 L43,31 L43,30 L41,30 L41,29 L40,29 L40,28 L39,28 L39,27 L38,27 L38,26 L37,26 L37,25 L35,25 L35,24 L34,24 L34,23 L32,23 L32,22 L31,22 L31,21 L29,21 L29,20 L28,20 L28,19 L27,19 L27,18 L26,18 L26,17 L23,17 L23,16 L21,16 L21,15 L19,15 L19,14 L16,14 L16,13 L11,13 L11,12 Z " fill="#657987" transform="translate(53,19)"/>
<path d="M0,0 L8,0 L8,1 L13,1 L13,2 L16,2 L16,3 L17,3 L17,4 L19,4 L19,5 L20,5 L20,6 L22,6 L22,7 L23,7 L23,8 L24,8 L24,10 L25,10 L25,12 L26,12 L26,14 L27,14 L27,17 L28,17 L28,21 L29,21 L29,25 L28,25 L28,30 L27,30 L27,32 L26,32 L26,34 L25,34 L25,36 L24,36 L24,38 L23,38 L23,39 L22,39 L22,40 L20,40 L20,41 L19,41 L19,42 L17,42 L17,43 L15,43 L15,44 L13,44 L13,45 L8,45 L8,46 L0,46 L0,45 L-5,45 L-5,44 L-8,44 L-8,43 L-9,43 L-9,42 L-11,42 L-11,41 L-12,41 L-12,40 L-14,40 L-14,39 L-15,39 L-15,38 L-16,38 L-16,35 L-17,35 L-17,34 L-18,34 L-18,32 L-19,32 L-19,29 L-20,29 L-20,25 L-21,25 L-21,21 L-20,21 L-20,16 L-19,16 L-19,14 L-18,14 L-18,12 L-17,12 L-17,11 L-16,11 L-16,8 L-15,8 L-15,7 L-14,7 L-14,6 L-12,6 L-12,5 L-11,5 L-11,4 L-9,4 L-9,3 L-7,3 L-7,2 L-5,2 L-5,1 L0,1 Z M-1,13 L-1,14 L-3,14 L-3,15 L-4,15 L-4,16 L-5,16 L-5,17 L-6,17 L-6,18 L-7,18 L-7,20 L-8,20 L-8,26 L-7,26 L-7,28 L-6,28 L-6,29 L-5,29 L-5,30 L-4,30 L-4,31 L-3,31 L-3,32 L0,32 L0,33 L9,33 L9,32 L11,32 L11,31 L12,31 L12,30 L13,30 L13,29 L14,29 L14,28 L15,28 L15,26 L16,26 L16,20 L15,20 L15,18 L14,18 L14,17 L13,17 L13,16 L12,16 L12,15 L11,15 L11,14 L8,14 L8,13 Z " fill="#657987" transform="translate(56,38)"/>
<path d="M0,0 L3,0 L3,1 L2,1 L2,2 L1,2 L1,3 L0,3 L0,4 L-1,4 L-1,5 L-2,5 L-2,6 L-5,6 L-5,5 L-4,5 L-4,4 L-3,4 L-3,3 L-2,3 L-2,2 L-1,2 L-1,1 L0,1 Z " fill="#6C7C87" transform="translate(22,49)"/>
</svg>
