<?xml version="1.0" encoding="UTF-8"?>
<svg version="1.1" xmlns="http://www.w3.org/2000/svg" width="121" height="121">
<path d="M0,0 L63,0 L63,4 L62,4 L62,5 L61,5 L61,8 L60,8 L60,10 L59,10 L59,12 L58,12 L58,13 L57,13 L57,14 L56,14 L56,16 L55,16 L55,18 L54,18 L54,21 L53,21 L53,23 L52,23 L52,24 L51,24 L51,26 L50,26 L50,27 L49,27 L49,29 L48,29 L48,31 L47,31 L47,33 L46,33 L46,35 L45,35 L45,36 L87,36 L87,40 L86,40 L86,41 L85,41 L85,43 L83,43 L83,44 L82,44 L82,45 L81,45 L81,46 L79,46 L79,48 L78,48 L78,49 L77,49 L77,50 L75,50 L75,51 L74,51 L74,52 L73,52 L73,53 L71,53 L71,55 L70,55 L70,56 L69,56 L69,57 L67,57 L67,58 L66,58 L66,59 L64,59 L64,60 L63,60 L63,62 L62,62 L62,63 L61,63 L61,64 L59,64 L59,65 L58,65 L58,66 L57,66 L57,67 L56,67 L56,68 L55,68 L55,69 L54,69 L54,70 L53,70 L53,71 L52,71 L52,72 L50,72 L50,73 L49,73 L49,74 L48,74 L48,75 L47,75 L47,76 L46,76 L46,77 L45,77 L45,78 L44,78 L44,79 L42,79 L42,80 L40,80 L40,82 L39,82 L39,83 L38,83 L38,84 L37,84 L37,85 L36,85 L36,86 L34,86 L34,87 L33,87 L33,89 L32,89 L32,90 L30,90 L30,91 L29,91 L29,92 L26,92 L26,93 L25,93 L25,95 L24,95 L24,96 L23,96 L23,97 L22,97 L22,98 L21,98 L21,99 L18,99 L18,100 L17,100 L17,102 L16,102 L16,103 L15,103 L15,104 L14,104 L14,105 L13,105 L13,106 L10,106 L10,108 L9,108 L9,110 L7,110 L7,111 L6,111 L6,112 L5,112 L5,113 L3,113 L3,115 L2,115 L2,116 L0,116 L0,117 L-1,117 L-1,118 L-2,118 L-2,119 L-3,119 L-3,120 L-5,120 L-5,121 L-10,121 L-10,118 L-9,118 L-9,115 L-8,115 L-8,111 L-7,111 L-7,109 L-6,109 L-6,106 L-5,106 L-5,103 L-3,103 L-3,100 L-2,100 L-2,98 L-1,98 L-1,95 L0,95 L0,91 L1,91 L1,89 L2,89 L2,86 L3,86 L3,85 L4,85 L4,83 L5,83 L5,79 L6,79 L6,77 L7,77 L7,75 L8,75 L8,71 L9,71 L9,69 L10,69 L10,66 L11,66 L11,65 L12,65 L12,63 L-33,63 L-33,62 L-34,62 L-34,58 L-33,58 L-33,57 L-32,57 L-32,54 L-31,54 L-31,52 L-30,52 L-30,51 L-29,51 L-29,49 L-28,49 L-28,46 L-26,46 L-26,44 L-25,44 L-25,42 L-24,42 L-24,41 L-23,41 L-23,38 L-22,38 L-22,37 L-21,37 L-21,35 L-20,35 L-20,32 L-18,32 L-18,30 L-17,30 L-17,29 L-16,29 L-16,26 L-15,26 L-15,24 L-14,24 L-14,22 L-13,22 L-13,21 L-11,21 L-11,18 L-10,18 L-10,17 L-9,17 L-9,14 L-8,14 L-8,12 L-7,12 L-7,11 L-6,11 L-6,9 L-5,9 L-5,7 L-4,7 L-4,6 L-3,6 L-3,4 L-2,4 L-2,3 L-1,3 L-1,1 L0,1 Z M9,11 L9,13 L8,13 L8,15 L7,15 L7,17 L6,17 L6,18 L5,18 L5,21 L4,21 L4,22 L3,22 L3,23 L2,23 L2,25 L1,25 L1,26 L0,26 L0,29 L-1,29 L-1,31 L-2,31 L-2,32 L-3,32 L-3,33 L-4,33 L-4,35 L-5,35 L-5,37 L-6,37 L-6,38 L-7,38 L-7,41 L-8,41 L-8,43 L-9,43 L-9,45 L-10,45 L-10,46 L-12,46 L-12,49 L-13,49 L-13,50 L31,50 L31,51 L32,51 L32,55 L31,55 L31,58 L30,58 L30,60 L29,60 L29,62 L28,62 L28,63 L27,63 L27,64 L26,64 L26,66 L25,66 L25,69 L24,69 L24,72 L23,72 L23,75 L22,75 L22,78 L23,78 L23,77 L25,77 L25,76 L27,76 L27,75 L28,75 L28,74 L29,74 L29,73 L30,73 L30,72 L31,72 L31,71 L32,71 L32,70 L33,70 L33,69 L35,69 L35,68 L36,68 L36,66 L37,66 L37,65 L38,65 L38,64 L39,64 L39,63 L42,63 L42,62 L43,62 L43,61 L44,61 L44,59 L45,59 L45,58 L46,58 L46,57 L48,57 L48,56 L50,56 L50,54 L51,54 L51,53 L52,53 L52,52 L53,52 L53,51 L54,51 L54,50 L55,50 L55,49 L25,49 L25,48 L24,48 L24,47 L23,47 L23,44 L24,44 L24,43 L25,43 L25,42 L27,42 L27,39 L28,39 L28,37 L29,37 L29,35 L30,35 L30,33 L31,33 L31,31 L32,31 L32,29 L33,29 L33,26 L35,26 L35,25 L36,25 L36,23 L37,23 L37,21 L38,21 L38,18 L39,18 L39,16 L40,16 L40,14 L42,14 L42,12 L43,12 L43,11 Z M21,78 L21,79 L22,79 L22,78 Z M20,80 L20,81 L21,81 L21,80 Z " fill="#657987" transform="translate(34,0)"/>
<path d="M0,0 L2,0 L2,2 L0,2 Z " fill="#FF3F00" transform="translate(10,34)"/>
<path d="M0,0 L1,0 L1,1 L0,1 Z " fill="#FFFF00" transform="translate(114,60)"/>
</svg>
