<?xml version="1.0" encoding="UTF-8"?>
<svg version="1.1" xmlns="http://www.w3.org/2000/svg" width="121" height="121">
<path d="M0,0 L7,0 L7,1 L9,1 L9,2 L10,2 L10,3 L11,3 L11,4 L12,4 L12,5 L14,5 L14,6 L15,6 L15,7 L16,7 L16,8 L17,8 L17,9 L18,9 L18,10 L20,10 L20,11 L21,11 L21,12 L23,12 L23,13 L24,13 L24,14 L25,14 L25,15 L27,15 L27,16 L28,16 L28,17 L29,17 L29,18 L30,18 L30,19 L32,19 L32,20 L33,20 L33,21 L34,21 L34,22 L36,22 L36,24 L38,24 L38,25 L39,25 L39,26 L41,26 L41,27 L43,27 L43,26 L44,26 L44,25 L46,25 L46,24 L47,24 L47,23 L48,23 L48,22 L49,22 L49,21 L51,21 L51,20 L52,20 L52,19 L53,19 L53,18 L54,18 L54,17 L55,17 L55,16 L57,16 L57,15 L58,15 L58,14 L59,14 L59,13 L60,13 L60,12 L62,12 L62,11 L63,11 L63,10 L64,10 L64,9 L65,9 L65,8 L67,8 L67,7 L68,7 L68,6 L69,6 L69,5 L70,5 L70,4 L72,4 L72,3 L73,3 L73,2 L74,2 L74,1 L76,1 L76,0 L83,0 L83,95 L82,95 L82,96 L80,96 L80,97 L79,97 L79,98 L78,98 L78,99 L76,99 L76,100 L75,100 L75,101 L73,101 L73,102 L72,102 L72,103 L71,103 L71,104 L69,104 L69,105 L67,105 L67,106 L66,106 L66,107 L65,107 L65,108 L63,108 L63,109 L62,109 L62,110 L60,110 L60,111 L59,111 L59,112 L58,112 L58,113 L56,113 L56,114 L54,114 L54,115 L53,115 L53,116 L52,116 L52,117 L50,117 L50,118 L49,118 L49,119 L48,119 L48,120 L46,120 L46,121 L37,121 L37,120 L35,120 L35,119 L34,119 L34,118 L33,118 L33,117 L31,117 L31,116 L29,116 L29,115 L28,115 L28,114 L27,114 L27,113 L25,113 L25,112 L23,112 L23,111 L22,111 L22,110 L20,110 L20,109 L18,109 L18,108 L16,108 L16,107 L15,107 L15,106 L13,106 L13,105 L12,105 L12,104 L10,104 L10,103 L9,103 L9,102 L7,102 L7,101 L5,101 L5,100 L2,100 L2,101 L0,101 L0,102 L-1,102 L-1,103 L-3,103 L-3,104 L-4,104 L-4,105 L-6,105 L-6,106 L-7,106 L-7,107 L-9,107 L-9,108 L-10,108 L-10,109 L-12,109 L-12,110 L-14,110 L-14,111 L-15,111 L-15,112 L-17,112 L-17,113 L-18,113 L-18,114 L-20,114 L-20,115 L-22,115 L-22,116 L-23,116 L-23,117 L-25,117 L-25,118 L-26,118 L-26,119 L-28,119 L-28,120 L-30,120 L-30,121 L-38,121 L-38,31 L-37,31 L-37,30 L-36,30 L-36,29 L-34,29 L-34,28 L-33,28 L-33,27 L-32,27 L-32,26 L-31,26 L-31,25 L-30,25 L-30,24 L-28,24 L-28,23 L-27,23 L-27,22 L-26,22 L-26,21 L-25,21 L-25,20 L-23,20 L-23,19 L-22,19 L-22,18 L-21,18 L-21,17 L-20,17 L-20,16 L-19,16 L-19,15 L-17,15 L-17,14 L-16,14 L-16,13 L-15,13 L-15,12 L-14,12 L-14,11 L-13,11 L-13,10 L-11,10 L-11,9 L-10,9 L-10,8 L-8,8 L-8,6 L-7,6 L-7,5 L-5,5 L-5,4 L-4,4 L-4,3 L-2,3 L-2,1 L0,1 Z M9,16 L9,90 L10,90 L10,91 L11,91 L11,92 L13,92 L13,93 L15,93 L15,94 L16,94 L16,95 L17,95 L17,96 L19,96 L19,97 L21,97 L21,98 L23,98 L23,99 L24,99 L24,100 L26,100 L26,101 L28,101 L28,102 L29,102 L29,103 L31,103 L31,104 L32,104 L32,105 L34,105 L34,106 L36,106 L36,37 L35,37 L35,36 L34,36 L34,35 L33,35 L33,34 L32,34 L32,33 L30,33 L30,32 L29,32 L29,31 L28,31 L28,30 L27,30 L27,29 L26,29 L26,28 L24,28 L24,27 L23,27 L23,26 L22,26 L22,25 L20,25 L20,24 L19,24 L19,23 L17,23 L17,22 L16,22 L16,21 L15,21 L15,20 L14,20 L14,19 L12,19 L12,18 L11,18 L11,17 L10,17 L10,16 Z M72,16 L72,18 L70,18 L70,19 L69,19 L69,20 L67,20 L67,21 L66,21 L66,23 L64,23 L64,24 L63,24 L63,25 L61,25 L61,26 L60,26 L60,27 L59,27 L59,28 L58,28 L58,29 L57,29 L57,30 L55,30 L55,31 L54,31 L54,32 L53,32 L53,33 L52,33 L52,34 L50,34 L50,35 L49,35 L49,36 L48,36 L48,37 L47,37 L47,78 L48,78 L48,105 L50,105 L50,104 L52,104 L52,103 L53,103 L53,102 L54,102 L54,101 L56,101 L56,100 L57,100 L57,99 L59,99 L59,98 L60,98 L60,97 L62,97 L62,96 L63,96 L63,95 L65,95 L65,94 L66,94 L66,93 L68,93 L68,92 L69,92 L69,91 L71,91 L71,90 L72,90 L72,89 L73,89 L73,88 L74,88 L74,16 Z M-4,17 L-4,18 L-5,18 L-5,19 L-7,19 L-7,21 L-9,21 L-9,22 L-10,22 L-10,23 L-11,23 L-11,24 L-13,24 L-13,26 L-15,26 L-15,27 L-16,27 L-16,28 L-17,28 L-17,29 L-19,29 L-19,30 L-20,30 L-20,31 L-21,31 L-21,32 L-22,32 L-22,33 L-24,33 L-24,34 L-25,34 L-25,35 L-26,35 L-26,36 L-27,36 L-27,37 L-28,37 L-28,107 L-27,107 L-27,106 L-26,106 L-26,105 L-24,105 L-24,104 L-22,104 L-22,103 L-21,103 L-21,102 L-20,102 L-20,101 L-18,101 L-18,100 L-16,100 L-16,99 L-14,99 L-14,97 L-12,97 L-12,96 L-10,96 L-10,95 L-8,95 L-8,94 L-7,94 L-7,93 L-6,93 L-6,92 L-4,92 L-4,91 L-2,91 L-2,17 Z " fill="#F7B446" transform="translate(38,0)"/>
<path d="M0,0 L1,0 L1,27 L2,27 L2,29 L-1,29 L-1,1 L0,1 Z " fill="#FBD821" transform="translate(85,78)"/>
</svg>
